<?xml version="1.0" encoding="utf-8"?>
<!-- Generator: Adobe Illustrator 24.0.2, SVG Export Plug-In . SVG Version: 6.00 Build 0)  -->
<svg version="1.1" id="Layer_1" xmlns="http://www.w3.org/2000/svg" xmlns:xlink="http://www.w3.org/1999/xlink" x="0px" y="0px"
	 viewBox="0 0 2000 2000" style="enable-background:new 0 0 2000 2000;" xml:space="preserve">
<style type="text/css">
	.st0{fill:#162544;}
	.st1{fill:#DBAD5B;}
	.st2{fill:#676767;}
</style>
<rect x="0" y="0" class="st0" width="2000" height="2000"/>
<g>
	<path class="st1" d="M1181.95,1062.19v22.66h451.38v207.68H366.66v-207.68h451.38v-22.66H344v253h1312v-253H1181.95z"/>
	<g>
		<path class="st1" d="M428.49,1261.67h-19.76V1115.7h19.76V1261.67z"/>
		<path class="st1" d="M566.37,1214.05c0.71,1.8,1.41,3.62,2.09,5.45c0.68-1.9,1.39-3.72,2.14-5.45c0.75-1.73,1.6-3.48,2.55-5.24
			l49.41-89.74c0.88-1.56,1.8-2.51,2.75-2.85c0.95-0.34,2.31-0.51,4.07-0.51h14.57v145.97h-17.32v-107.26c0-1.43,0.03-2.95,0.1-4.59
			c0.07-1.63,0.17-3.29,0.31-4.99l-50.02,91.27c-1.7,3.06-4.07,4.58-7.13,4.58h-2.85c-3.05,0-5.43-1.53-7.13-4.58l-51.14-91.58
			c0.2,1.77,0.36,3.5,0.46,5.19c0.1,1.7,0.15,3.26,0.15,4.69v107.26h-17.32V1115.7h14.57c1.76,0,3.12,0.17,4.07,0.51
			c0.95,0.34,1.87,1.29,2.75,2.85l50.42,89.85C564.82,1210.53,565.65,1212.25,566.37,1214.05z"/>
		<path class="st1" d="M839.52,1188.74c0,10.93-1.73,20.97-5.19,30.1c-3.46,9.14-8.35,17-14.67,23.58
			c-6.32,6.59-13.9,11.7-22.77,15.33c-8.86,3.63-18.66,5.45-29.39,5.45c-10.73,0-20.51-1.81-29.34-5.45
			c-8.83-3.63-16.4-8.74-22.72-15.33s-11.2-14.45-14.67-23.58c-3.46-9.13-5.19-19.17-5.19-30.1c0-10.93,1.73-20.97,5.19-30.1
			s8.35-17.01,14.67-23.63c6.32-6.62,13.89-11.76,22.72-15.43c8.83-3.67,18.61-5.5,29.34-5.5c10.73,0,20.53,1.83,29.39,5.5
			c8.86,3.67,16.45,8.81,22.77,15.43c6.31,6.62,11.2,14.5,14.67,23.63C837.78,1167.77,839.52,1177.8,839.52,1188.74z
			 M819.24,1188.74c0-8.96-1.22-17.01-3.67-24.14c-2.44-7.13-5.91-13.15-10.39-18.08c-4.48-4.92-9.92-8.71-16.3-11.36
			c-6.38-2.65-13.52-3.97-21.39-3.97c-7.81,0-14.91,1.33-21.29,3.97c-6.38,2.65-11.83,6.44-16.35,11.36
			c-4.52,4.93-8,10.95-10.44,18.08c-2.45,7.13-3.67,15.18-3.67,24.14s1.22,17,3.67,24.09c2.45,7.1,5.92,13.11,10.44,18.03
			c4.51,4.92,9.97,8.69,16.35,11.31s13.48,3.92,21.29,3.92c7.88,0,15.01-1.31,21.39-3.92c6.38-2.61,11.82-6.38,16.3-11.31
			c4.48-4.92,7.95-10.93,10.39-18.03C818.02,1205.73,819.24,1197.7,819.24,1188.74z"/>
		<path class="st1" d="M956.05,1247.31c3.94,0,7.55-0.19,10.85-0.56c3.29-0.37,6.4-0.93,9.32-1.68c2.92-0.75,5.67-1.64,8.25-2.7
			c2.58-1.05,5.16-2.26,7.74-3.62v-32.19h-22.62c-1.29,0-2.33-0.37-3.1-1.12c-0.78-0.75-1.17-1.66-1.17-2.75v-11.2h44.82v56.02
			c-3.67,2.65-7.49,4.96-11.46,6.93c-3.97,1.97-8.22,3.62-12.73,4.94c-4.52,1.33-9.36,2.31-14.52,2.95
			c-5.16,0.64-10.76,0.97-16.81,0.97c-10.59,0-20.31-1.81-29.13-5.45c-8.83-3.63-16.43-8.73-22.82-15.28
			c-6.38-6.55-11.36-14.41-14.92-23.58c-3.57-9.17-5.35-19.25-5.35-30.25c0-11.14,1.75-21.29,5.24-30.46
			c3.5-9.17,8.49-17.03,14.97-23.58c6.48-6.55,14.33-11.63,23.53-15.23c9.2-3.6,19.51-5.4,30.92-5.4c5.77,0,11.14,0.42,16.09,1.27
			c4.96,0.85,9.56,2.07,13.8,3.67c4.24,1.6,8.17,3.53,11.76,5.81c3.6,2.28,6.96,4.84,10.09,7.69l-5.6,8.96
			c-1.16,1.83-2.65,2.75-4.48,2.75c-1.09,0-2.28-0.37-3.57-1.12c-1.7-0.95-3.6-2.1-5.7-3.46c-2.11-1.36-4.67-2.66-7.69-3.92
			c-3.02-1.26-6.59-2.33-10.7-3.21c-4.11-0.88-8.98-1.33-14.62-1.33c-8.22,0-15.65,1.34-22.31,4.02
			c-6.66,2.68-12.33,6.52-17.01,11.51c-4.69,4.99-8.29,11.03-10.8,18.13c-2.51,7.1-3.77,15.06-3.77,23.89
			c0,9.24,1.31,17.47,3.92,24.7c2.61,7.23,6.3,13.36,11.05,18.39s10.39,8.86,16.91,11.51
			C940.97,1245.98,948.17,1247.31,956.05,1247.31z"/>
		<path class="st1" d="M1086.63,1200.75v60.92h-19.66V1115.7h41.26c9.23,0,17.21,0.93,23.94,2.8c6.72,1.87,12.28,4.57,16.66,8.1
			c4.38,3.53,7.62,7.79,9.73,12.79c2.1,4.99,3.16,10.58,3.16,16.76c0,5.16-0.81,9.98-2.44,14.46c-1.63,4.48-3.99,8.5-7.08,12.07
			c-3.09,3.57-6.86,6.61-11.31,9.12c-4.45,2.51-9.49,4.42-15.13,5.7c2.45,1.43,4.62,3.5,6.52,6.21l42.58,57.96h-17.52
			c-3.6,0-6.25-1.39-7.95-4.18l-37.89-52.15c-1.16-1.63-2.41-2.8-3.77-3.51c-1.36-0.71-3.4-1.07-6.11-1.07H1086.63z
			 M1086.63,1186.39h20.68c5.77,0,10.85-0.69,15.23-2.09c4.38-1.39,8.05-3.36,11-5.91c2.95-2.55,5.18-5.58,6.67-9.12
			c1.49-3.53,2.24-7.44,2.24-11.71c0-8.69-2.87-15.25-8.61-19.66c-5.74-4.41-14.28-6.62-25.62-6.62h-21.6V1186.39z"/>
		<path class="st1" d="M1351.48,1188.74c0,10.93-1.73,20.97-5.19,30.1c-3.46,9.14-8.35,17-14.67,23.58
			c-6.32,6.59-13.9,11.7-22.77,15.33c-8.86,3.63-18.66,5.45-29.39,5.45c-10.73,0-20.51-1.81-29.34-5.45
			c-8.83-3.63-16.4-8.74-22.72-15.33s-11.2-14.45-14.67-23.58c-3.46-9.13-5.19-19.17-5.19-30.1c0-10.93,1.73-20.97,5.19-30.1
			s8.35-17.01,14.67-23.63c6.32-6.62,13.89-11.76,22.72-15.43c8.83-3.67,18.61-5.5,29.34-5.5c10.73,0,20.53,1.83,29.39,5.5
			c8.86,3.67,16.45,8.81,22.77,15.43c6.31,6.62,11.2,14.5,14.67,23.63C1349.75,1167.77,1351.48,1177.8,1351.48,1188.74z
			 M1331.21,1188.74c0-8.96-1.22-17.01-3.67-24.14c-2.44-7.13-5.91-13.15-10.39-18.08c-4.48-4.92-9.92-8.71-16.3-11.36
			c-6.38-2.65-13.52-3.97-21.39-3.97c-7.81,0-14.91,1.33-21.29,3.97c-6.38,2.65-11.83,6.44-16.35,11.36
			c-4.52,4.93-8,10.95-10.44,18.08c-2.45,7.13-3.67,15.18-3.67,24.14s1.22,17,3.67,24.09c2.45,7.1,5.92,13.11,10.44,18.03
			c4.51,4.92,9.97,8.69,16.35,11.31s13.48,3.92,21.29,3.92c7.88,0,15.01-1.31,21.39-3.92c6.38-2.61,11.82-6.38,16.3-11.31
			c4.48-4.92,7.94-10.93,10.39-18.03C1329.99,1205.73,1331.21,1197.7,1331.21,1188.74z"/>
		<path class="st1" d="M1386.62,1115.7h16.4c1.76,0,3.22,0.44,4.38,1.32c1.15,0.89,1.94,2.01,2.34,3.36l30.15,101.46
			c0.54,1.83,1.03,3.8,1.48,5.91c0.44,2.1,0.87,4.31,1.27,6.62c0.47-2.31,0.95-4.53,1.43-6.67c0.47-2.14,1.02-4.09,1.63-5.86
			l34.33-101.46c0.41-1.15,1.2-2.22,2.39-3.21c1.19-0.98,2.63-1.48,4.33-1.48h5.7c1.77,0,3.21,0.44,4.33,1.32
			c1.12,0.89,1.92,2.01,2.39,3.36l34.13,101.46c1.22,3.53,2.31,7.57,3.26,12.12c0.41-2.24,0.78-4.38,1.12-6.42
			c0.34-2.04,0.78-3.94,1.32-5.71l30.25-101.46c0.34-1.22,1.1-2.31,2.29-3.26c1.19-0.95,2.63-1.43,4.33-1.43h15.38l-45.53,145.97
			h-17.72l-36.98-111.34c-0.75-2.1-1.43-4.55-2.04-7.33c-0.34,1.36-0.66,2.66-0.97,3.92c-0.31,1.26-0.63,2.39-0.97,3.41
			l-37.18,111.34h-17.72L1386.62,1115.7z"/>
	</g>
	<g>
		<ellipse class="st2" cx="1000" cy="1066.84" rx="54.13" ry="9.06"/>
		<g>
			<g>
				<path class="st1" d="M887.22,918.4c0-21.85,6.26-42.25,17.06-59.55v-29.22c-21.64,23.32-34.91,54.51-34.91,88.76
					s13.27,65.44,34.91,88.76v-29.22C893.48,960.65,887.22,940.24,887.22,918.4z"/>
				<path class="st1" d="M1130.62,918.4v-8.92h-96.25v17.85h78.06c-1.45,18.48-7.4,35.72-16.71,50.64v29.2
					C1117.35,983.84,1130.62,952.64,1130.62,918.4z"/>
				<path class="st1" d="M991.07,806v224.78c-25.56-2.01-48.76-12.55-66.71-28.81v22.82c21.36,15.23,47.46,24.23,75.64,24.23
					c28.18,0,54.28-9,75.64-24.23v-22.84c-17.95,16.27-41.14,26.83-66.71,28.84V806.01c24.75,1.98,48.29,12.14,66.71,28.78v-22.86
					c-21.94-15.55-48.42-24.16-75.64-24.16c-28.18,0-54.27,9-75.64,24.23v22.82C942.31,818.56,965.51,808.02,991.07,806z"/>
				<polygon class="st1" points="1095.72,829.51 1095.71,829.5 1095.71,829.52 				"/>
				<polygon class="st1" points="1159.54,849.63 1171.36,836.26 1121.24,791.96 1121.24,717.71 1070.31,717.71 1070.31,746.95 
					1000,684.81 828.64,836.26 840.46,849.63 1000,708.63 1088.16,786.54 1088.16,735.56 1103.39,735.56 1103.39,800.01 				"/>
			</g>
		</g>
	</g>
</g>
</svg>
